<mxfile host="drawio-plugin" modified="2024-01-27T21:18:22.845Z" agent="5.0 (X11; Linux x86_64) AppleWebKit/537.36 (KHTML, like Gecko) Chrome/111.0.0.0 Safari/537.36" etag="STFHpkkUMWnsfM41nYFy" version="20.5.3" type="embed"><diagram id="23iRSUPoRavnBvh4doch" name="Page-1"><mxGraphModel dx="934" dy="544" grid="1" gridSize="10" guides="1" tooltips="1" connect="1" arrows="1" fold="1" page="1" pageScale="1" pageWidth="827" pageHeight="1169" math="0" shadow="0"><root><mxCell id="0"/><mxCell id="1" parent="0"/><mxCell id="115" value="material" style="rounded=0;whiteSpace=wrap;html=1;" vertex="1" parent="1"><mxGeometry x="395" y="200" width="90" height="30" as="geometry"/></mxCell><mxCell id="114" value="program" style="rounded=0;whiteSpace=wrap;html=1;" vertex="1" parent="1"><mxGeometry x="115" y="200" width="90" height="30" as="geometry"/></mxCell><mxCell id="39" value="program" style="rounded=0;whiteSpace=wrap;html=1;" parent="1" vertex="1"><mxGeometry x="675" y="480" width="90" height="30" as="geometry"/></mxCell><mxCell id="29" value="texture_unit" style="rounded=0;whiteSpace=wrap;html=1;" parent="1" vertex="1"><mxGeometry x="545" y="480" width="90" height="30" as="geometry"/></mxCell><mxCell id="26" value="param" style="rounded=0;whiteSpace=wrap;html=1;" parent="1" vertex="1"><mxGeometry x="205" y="380" width="90" height="30" as="geometry"/></mxCell><mxCell id="25" value="param" style="rounded=0;whiteSpace=wrap;html=1;" parent="1" vertex="1"><mxGeometry x="45" y="300" width="90" height="30" as="geometry"/></mxCell><mxCell id="24" value="param" style="rounded=0;whiteSpace=wrap;html=1;" parent="1" vertex="1"><mxGeometry x="415" y="480" width="90" height="30" as="geometry"/></mxCell><mxCell id="23" value="param" style="rounded=0;whiteSpace=wrap;html=1;" parent="1" vertex="1"><mxGeometry x="325" y="300" width="90" height="30" as="geometry"/></mxCell><mxCell id="19" value="technique" style="rounded=0;whiteSpace=wrap;html=1;" parent="1" vertex="1"><mxGeometry x="485" y="300" width="90" height="30" as="geometry"/></mxCell><mxCell id="20" value="pass" style="rounded=0;whiteSpace=wrap;html=1;" parent="1" vertex="1"><mxGeometry x="485" y="380" width="90" height="30" as="geometry"/></mxCell><mxCell id="112" style="edgeStyle=orthogonalEdgeStyle;rounded=0;orthogonalLoop=1;jettySize=auto;html=1;entryX=0.25;entryY=1;entryDx=0;entryDy=0;" edge="1" parent="1" source="2" target="111"><mxGeometry relative="1" as="geometry"><Array as="points"><mxPoint x="150" y="150"/><mxPoint x="272" y="150"/></Array></mxGeometry></mxCell><mxCell id="2" value="program" style="rounded=0;whiteSpace=wrap;html=1;" parent="1" vertex="1"><mxGeometry x="105" y="190" width="90" height="30" as="geometry"/></mxCell><mxCell id="9" style="edgeStyle=orthogonalEdgeStyle;rounded=0;orthogonalLoop=1;jettySize=auto;html=1;entryX=0.25;entryY=1;entryDx=0;entryDy=0;" parent="1" source="3" target="2" edge="1"><mxGeometry relative="1" as="geometry"/></mxCell><mxCell id="3" value="param" style="rounded=0;whiteSpace=wrap;html=1;" parent="1" vertex="1"><mxGeometry x="35" y="290" width="90" height="30" as="geometry"/></mxCell><mxCell id="10" style="edgeStyle=orthogonalEdgeStyle;rounded=0;orthogonalLoop=1;jettySize=auto;html=1;entryX=0.75;entryY=1;entryDx=0;entryDy=0;" parent="1" source="4" target="2" edge="1"><mxGeometry relative="1" as="geometry"/></mxCell><mxCell id="4" value="defaults" style="rounded=0;whiteSpace=wrap;html=1;" parent="1" vertex="1"><mxGeometry x="195" y="290" width="90" height="30" as="geometry"/></mxCell><mxCell id="11" style="edgeStyle=orthogonalEdgeStyle;rounded=0;orthogonalLoop=1;jettySize=auto;html=1;entryX=0.5;entryY=1;entryDx=0;entryDy=0;" parent="1" source="5" target="4" edge="1"><mxGeometry relative="1" as="geometry"/></mxCell><mxCell id="5" value="param" style="rounded=0;whiteSpace=wrap;html=1;" parent="1" vertex="1"><mxGeometry x="195" y="370" width="90" height="30" as="geometry"/></mxCell><mxCell id="113" style="edgeStyle=orthogonalEdgeStyle;rounded=0;orthogonalLoop=1;jettySize=auto;html=1;entryX=0.75;entryY=1;entryDx=0;entryDy=0;" edge="1" parent="1" source="12" target="111"><mxGeometry relative="1" as="geometry"><Array as="points"><mxPoint x="430" y="150"/><mxPoint x="318" y="150"/></Array></mxGeometry></mxCell><mxCell id="12" value="material" style="rounded=0;whiteSpace=wrap;html=1;" parent="1" vertex="1"><mxGeometry x="385" y="190" width="90" height="30" as="geometry"/></mxCell><mxCell id="13" style="edgeStyle=orthogonalEdgeStyle;rounded=0;orthogonalLoop=1;jettySize=auto;html=1;entryX=0.25;entryY=1;entryDx=0;entryDy=0;" parent="1" source="14" target="12" edge="1"><mxGeometry relative="1" as="geometry"/></mxCell><mxCell id="14" value="param" style="rounded=0;whiteSpace=wrap;html=1;" parent="1" vertex="1"><mxGeometry x="315" y="290" width="90" height="30" as="geometry"/></mxCell><mxCell id="15" style="edgeStyle=orthogonalEdgeStyle;rounded=0;orthogonalLoop=1;jettySize=auto;html=1;entryX=0.75;entryY=1;entryDx=0;entryDy=0;" parent="1" source="16" target="12" edge="1"><mxGeometry relative="1" as="geometry"/></mxCell><mxCell id="17" style="edgeStyle=orthogonalEdgeStyle;rounded=0;orthogonalLoop=1;jettySize=auto;html=1;entryX=0.5;entryY=1;entryDx=0;entryDy=0;" parent="1" source="18" target="16" edge="1"><mxGeometry relative="1" as="geometry"/></mxCell><mxCell id="18" value="pass" style="rounded=0;whiteSpace=wrap;html=1;" parent="1" vertex="1"><mxGeometry x="475" y="370" width="90" height="30" as="geometry"/></mxCell><mxCell id="16" value="technique" style="rounded=0;whiteSpace=wrap;html=1;" parent="1" vertex="1"><mxGeometry x="475" y="290" width="90" height="30" as="geometry"/></mxCell><mxCell id="22" style="edgeStyle=orthogonalEdgeStyle;rounded=0;orthogonalLoop=1;jettySize=auto;html=1;entryX=0.25;entryY=1;entryDx=0;entryDy=0;" parent="1" source="21" target="18" edge="1"><mxGeometry relative="1" as="geometry"/></mxCell><mxCell id="21" value="param" style="rounded=0;whiteSpace=wrap;html=1;" parent="1" vertex="1"><mxGeometry x="405" y="470" width="90" height="30" as="geometry"/></mxCell><mxCell id="28" style="edgeStyle=orthogonalEdgeStyle;rounded=0;orthogonalLoop=1;jettySize=auto;html=1;entryX=0.5;entryY=1;entryDx=0;entryDy=0;" parent="1" source="27" target="18" edge="1"><mxGeometry relative="1" as="geometry"/></mxCell><mxCell id="27" value="texture_unit" style="rounded=0;whiteSpace=wrap;html=1;" parent="1" vertex="1"><mxGeometry x="535" y="470" width="90" height="30" as="geometry"/></mxCell><mxCell id="30" value="param" style="rounded=0;whiteSpace=wrap;html=1;" parent="1" vertex="1"><mxGeometry x="545" y="590" width="90" height="30" as="geometry"/></mxCell><mxCell id="33" style="edgeStyle=orthogonalEdgeStyle;rounded=0;orthogonalLoop=1;jettySize=auto;html=1;entryX=0.5;entryY=1;entryDx=0;entryDy=0;" parent="1" source="31" target="27" edge="1"><mxGeometry relative="1" as="geometry"/></mxCell><mxCell id="31" value="param" style="rounded=0;whiteSpace=wrap;html=1;" parent="1" vertex="1"><mxGeometry x="535" y="580" width="90" height="30" as="geometry"/></mxCell><mxCell id="38" style="edgeStyle=orthogonalEdgeStyle;rounded=0;orthogonalLoop=1;jettySize=auto;html=1;entryX=0.75;entryY=1;entryDx=0;entryDy=0;" parent="1" source="35" target="18" edge="1"><mxGeometry relative="1" as="geometry"><Array as="points"><mxPoint x="710" y="420"/><mxPoint x="543" y="420"/></Array></mxGeometry></mxCell><mxCell id="35" value="program" style="rounded=0;whiteSpace=wrap;html=1;" parent="1" vertex="1"><mxGeometry x="665" y="470" width="90" height="30" as="geometry"/></mxCell><mxCell id="40" value="param" style="rounded=0;whiteSpace=wrap;html=1;" parent="1" vertex="1"><mxGeometry x="675" y="590" width="90" height="30" as="geometry"/></mxCell><mxCell id="42" style="edgeStyle=orthogonalEdgeStyle;rounded=0;orthogonalLoop=1;jettySize=auto;html=1;entryX=0.5;entryY=1;entryDx=0;entryDy=0;" parent="1" source="41" target="35" edge="1"><mxGeometry relative="1" as="geometry"/></mxCell><mxCell id="41" value="param" style="rounded=0;whiteSpace=wrap;html=1;" parent="1" vertex="1"><mxGeometry x="665" y="580" width="90" height="30" as="geometry"/></mxCell><mxCell id="111" value="material_script" style="rounded=0;whiteSpace=wrap;html=1;" vertex="1" parent="1"><mxGeometry x="250" y="40" width="90" height="30" as="geometry"/></mxCell></root></mxGraphModel></diagram></mxfile>